<?xml version="1.0" standalone="no"?>
<!DOCTYPE svg PUBLIC "-//W3C//DTD SVG 20010904//EN"
 "http://www.w3.org/TR/2001/REC-SVG-20010904/DTD/svg10.dtd">
<svg version="1.0" xmlns="http://www.w3.org/2000/svg"
 width="967.000000pt" height="967.000000pt" viewBox="0 0 967.000000 967.000000"
 preserveAspectRatio="xMidYMid meet">
<metadata>
Created by potrace 1.14, written by Peter Selinger 2001-2017
</metadata>
<g transform="translate(0.000000,967.000000) scale(0.100000,-0.100000)"
fill="#000000" stroke="none">
<path d="M4568 9665 c-1 -1 -48 -6 -103 -9 -55 -4 -111 -9 -125 -11 -14 -2
-50 -7 -81 -10 -31 -3 -65 -7 -75 -9 -11 -2 -46 -7 -79 -11 -32 -3 -62 -8 -66
-10 -3 -3 -21 -6 -40 -9 -87 -11 -354 -72 -508 -117 -148 -43 -356 -114 -426
-145 -16 -7 -57 -24 -90 -37 -173 -70 -430 -199 -597 -298 -117 -70 -326 -207
-346 -226 -7 -7 -17 -13 -22 -13 -5 0 -16 -7 -25 -16 -8 -9 -44 -37 -78 -62
-71 -52 -172 -135 -235 -193 -23 -21 -45 -39 -47 -39 -19 0 -345 -333 -466
-475 -19 -22 -39 -45 -44 -51 -6 -6 -28 -34 -50 -62 -21 -29 -43 -52 -47 -52
-4 0 -8 -5 -8 -10 0 -6 -22 -38 -48 -73 -27 -34 -68 -91 -93 -127 -24 -36 -46
-67 -49 -70 -8 -7 -144 -229 -166 -270 -11 -19 -22 -37 -26 -40 -10 -8 -213
-416 -236 -475 -11 -27 -34 -86 -52 -130 -31 -79 -100 -270 -104 -290 -1 -5
-16 -55 -34 -110 -38 -124 -99 -367 -116 -470 -27 -161 -36 -216 -41 -255 -3
-25 -8 -62 -11 -83 -3 -21 -7 -57 -9 -80 -2 -23 -7 -85 -12 -137 -15 -179 -8
-717 12 -841 2 -13 6 -51 9 -84 4 -33 8 -71 10 -85 2 -14 7 -46 10 -71 9 -64
15 -100 22 -129 3 -14 8 -36 10 -50 2 -14 7 -36 10 -50 3 -14 8 -38 11 -55 2
-16 18 -84 34 -150 100 -404 261 -816 454 -1160 33 -61 64 -117 68 -125 4 -8
21 -35 37 -60 16 -25 35 -56 42 -70 7 -14 15 -27 18 -30 9 -9 90 -130 90 -135
0 -3 7 -13 15 -22 8 -10 49 -65 92 -123 69 -93 137 -181 168 -216 6 -7 30 -35
55 -64 130 -151 324 -346 469 -470 35 -30 73 -64 86 -75 33 -29 50 -43 155
-123 52 -40 102 -79 110 -85 28 -22 230 -158 263 -176 18 -11 73 -43 122 -74
398 -242 977 -467 1445 -561 104 -21 187 -37 209 -40 88 -14 110 -17 141 -21
39 -5 122 -15 160 -20 197 -26 842 -26 975 -1 11 2 54 7 95 11 41 4 84 9 95
11 11 3 39 7 61 10 23 2 53 7 65 10 13 2 40 7 59 10 19 3 42 7 50 9 8 2 31 7
50 10 19 3 51 10 70 15 19 5 46 11 60 14 38 6 233 56 250 63 18 7 14 6 66 21
286 82 678 248 949 402 45 25 180 104 210 123 119 74 432 297 477 340 7 7 33
28 57 47 25 19 54 44 66 55 12 11 66 61 120 110 115 106 163 154 278 278 87
94 111 122 169 193 86 105 104 129 154 197 29 39 57 77 62 82 23 28 212 323
212 331 0 2 8 17 19 32 25 36 68 114 71 127 1 6 7 17 14 25 12 14 119 231 165
333 74 164 211 548 236 660 2 12 20 83 39 157 18 74 36 151 39 170 3 19 12 70
21 113 8 42 20 114 26 160 6 45 13 93 15 107 28 184 28 1053 0 1160 -2 8 -6
42 -10 75 -8 75 -41 270 -60 353 -8 34 -17 74 -20 90 -2 15 -18 77 -35 137
-17 61 -33 120 -35 131 -6 28 -83 262 -94 289 -5 11 -24 58 -42 105 -68 178
-169 395 -256 553 -55 100 -199 342 -215 362 -5 6 -38 53 -75 105 -37 52 -71
97 -75 98 -4 2 -8 8 -8 13 0 8 -91 129 -125 165 -5 6 -21 25 -35 43 -14 18
-41 49 -60 71 -19 21 -57 63 -85 95 -103 117 -345 349 -464 445 -24 19 -49 40
-55 45 -6 6 -29 24 -51 40 -22 17 -44 35 -50 41 -5 6 -53 41 -105 78 -52 37
-102 73 -111 80 -22 18 -306 196 -313 196 -3 0 -35 18 -71 40 -36 22 -65 37
-65 33 0 -3 -8 0 -17 8 -10 8 -63 37 -118 63 -55 27 -107 52 -115 57 -8 5 -22
12 -30 15 -8 4 -46 20 -85 36 -38 16 -83 35 -100 43 -85 37 -281 104 -510 175
-46 14 -266 68 -300 73 -16 3 -50 10 -75 15 -25 6 -63 13 -85 16 -23 4 -52 8
-65 11 -14 3 -36 7 -50 9 -14 3 -47 8 -75 11 -27 4 -61 8 -75 10 -14 2 -57 6
-95 10 -39 3 -90 9 -115 11 -51 6 -636 14 -642 9z"/>
</g>
</svg>
